<svg id="Capa_1" enable-background="new 0 0 512 512" height="512" viewBox="0 0 512 512" width="512" xmlns="http://www.w3.org/2000/svg"><g><path d="m486.399 209 7.432-1c-26.41-106.807-122.864-186-237.831-186s-211.421 79.193-237.831 186l7.432 1z" fill="#c4e2ff"/><g><path d="m133.584 136.945c-4.396 0-7.972-3.577-7.972-7.973s3.576-7.973 7.972-7.973h56.543c-9.577-14.459-25.985-24-44.627-24-28.053 0-51.048 21.596-53.303 49.068-.893-.043-1.792-.067-2.697-.067-29.547 0-53.5 23.953-53.5 53.5 0 3.244.305 6.415.858 9.5h18.142v-10.5c0-20.126 16.374-36.5 36.5-36.5 13.302 0 25.571 7.296 32.021 19.042l.531.968.911-.625c6.089-4.177 13.191-6.385 20.538-6.385 9.449 0 18.129 3.649 24.652 9.639 3.59-5.514 9.25-9.629 15.991-11.071l.687-.147 4.98-36.477h-58.227z" fill="#eaf6ff"/><path d="m145.5 97c-28.053 0-51.048 21.596-53.303 49.068-.893-.044-1.792-.068-2.697-.068-29.547 0-53.5 23.953-53.5 53.5 0 3.244.305 6.415.858 9.5h16.549c.153-1.261.354-2.506.593-3.738v-6.762c0-20.625 16.875-37.5 37.5-37.5 3.337 0 6.573.448 9.658 1.276 1.758-.175 3.538-.276 5.342-.276h.027c1.494.001 2.756-1.086 2.952-2.567 1.645-12.45 7.573-23.545 16.25-31.769.627-3.774 3.906-6.664 7.855-6.664h.785c8.172-5.067 17.806-8 28.131-8 9.969 0 19.284 2.749 27.272 7.498-9.623-14.173-25.85-23.498-44.272-23.498z" fill="#d8ecfe"/><g><path d="m182.907 209c-1.299-19.47-17.622-35-37.407-35-19.784 0-36.108 15.53-37.407 35z" fill="#8bc727"/></g><g><path d="m129 209v-10.5c0-20.625-16.875-37.5-37.5-37.5-20.625 0-37.5 16.875-37.5 37.5v10.5z" fill="#81b823"/></g><path d="m103.5 162.993c-3.773-1.285-7.807-1.993-12-1.993-20.625 0-37.5 16.875-37.5 37.5v10.5h24v-10.5c0-16.432 10.715-30.473 25.5-35.507z" fill="#78a91f"/><path d="m402.708 132.648c.105-1.37.176-2.75.176-4.148 0-29.547-23.953-53.5-53.5-53.5-.137 0-.271.009-.408.01 2.432-5.531 3.792-11.639 3.792-18.068 0-24.821-20.121-44.942-44.942-44.942-8.32 0-16.106 2.27-22.789 6.21-7.775-11.011-20.59-18.21-35.095-18.21-23.716 0-42.942 19.226-42.942 42.942 0 6.793 1.583 13.214 4.392 18.924.116-.114.225-.234.342-.348 11.627-11.297 26.961-17.518 43.177-17.518h2.179c16.216 0 31.55 6.221 43.177 17.518 11.601 11.271 18.268 26.369 18.773 42.514l.03.969h.02v16h59.327c4.396 0 7.972 3.577 7.972 7.973s-3.576 7.973-7.972 7.973h-58.019l4.917 36.505.683.15c11.589 2.546 20.002 13.018 20.002 24.898 0 3.696-.801 7.259-2.265 10.5h98.717c3.475-7.094 5.432-15.068 5.432-23.5 0-26.715-19.583-48.853-45.176-52.852z" fill="#eaf6ff"/><g><path d="m232.116 42.942c0-19.34 12.788-35.69 30.368-41.067-3.968-1.212-8.176-1.875-12.542-1.875-23.716 0-42.942 19.226-42.942 42.942 0 6.793 1.583 13.214 4.392 18.924.116-.114.225-.234.342-.348 6.035-5.863 13.073-10.344 20.709-13.313-.212-1.726-.327-3.48-.327-5.263z" fill="#d8ecfe"/></g><path d="m316.036 105 4.002-1c-1.059-33.866-28.826-61-62.949-61h-2.179c-34.123 0-61.891 27.134-62.949 61l4.002 1z" fill="#fdb441"/><g><path d="m225.864 104c.888-28.427 20.598-52.109 47.091-58.982-5.069-1.315-10.385-2.018-15.866-2.018h-2.179c-34.123 0-61.891 27.134-62.949 61z" fill="#fea613"/></g><g><path d="m470.907 209c-1.299-19.47-17.622-35-37.407-35-19.784 0-36.108 15.53-37.407 35z" fill="#8bc727"/></g><g><path d="m417 209v-10.5c0-20.625-16.875-37.5-37.5-37.5-20.625 0-37.5 16.875-37.5 37.5v10.5z" fill="#81b823"/></g><path d="m391.5 162.993c-3.773-1.285-7.807-1.993-12-1.993-20.625 0-37.5 16.875-37.5 37.5v10.5h24v-10.5c0-16.432 10.715-30.473 25.5-35.507z" fill="#78a91f"/><path d="m493.831 208h-475.662c-4.673 18.899-7.169 38.657-7.169 59 0 22.145 2.956 43.596 8.463 64l4.224 1h464.626l4.224-1c5.508-20.404 8.463-41.855 8.463-64 0-20.343-2.496-40.101-7.169-59z" fill="#60b7ff"/><g fill="#fff3de"><path d="m190.591 382.341c1.597-4.355 2-9.069 1.166-13.632l-6.62-36.189-1.295-1.52h-164.379c18.767 69.526 67.364 126.804 131.214 157.258l2.703-4.465z"/><path d="m328.157 331-1.295 1.52-6.62 36.189c-.834 4.563-.431 9.276 1.166 13.632l37.211 101.452 2.703 4.465c63.851-30.454 112.448-87.732 131.215-157.258z"/></g><path d="m379 368.5h-4.208l-12.432 12.432c1.375 1.571 3.389 2.568 5.641 2.568h11c4.142 0 7.5-3.358 7.5-7.5s-3.359-7.5-7.501-7.5z" fill="#ffe5c2"/><path d="m131.209 281.478c1.667-3.061 3.712-5.905 6.064-8.478h-5.755c-5.523 0-10-4.477-10-10s4.477-10 10-10h7.615c.035-.351.074-.701.123-1.052.122-.874.818-1.57 1.692-1.692 1.216-.17 2.456-.256 3.685-.256 3.653 0 7.19.741 10.446 2.142 3.507-1.554 5.957-5.059 5.957-9.142 0-5.523-4.477-10-10-10h-113.036c-5.523 0-10 4.477-10 10s4.477 10 10 10h36.667c5.523 0 10 4.477 10 10s-4.477 10-10 10h-24c-5.523 0-10 4.477-10 10s4.477 10 10 10h76.306c.859-4.019 2.271-7.912 4.236-11.522z" fill="#26a6fe"/><g><path d="m501 267c0-10.502-.671-20.847-1.957-31h-79.709c-5.523 0-10 4.477-10 10s4.477 10 10 10h36.666c5.523 0 10 4.477 10 10s-4.477 10-10 10h-64c-5.523 0-10 4.477-10 10s4.477 10 10 10h107.284c1.122-9.512 1.716-19.186 1.716-29z" fill="#26a6fe"/></g><g fill="#c57a44"><path d="m307.5 180.579c0 20.941-12.514 39.634-31.881 47.622l-.619.255v9.913c0 3.309 2.691 6 6 6h35.388c1.718 0 3.403.234 5.02.676 7.506-4.831 12.205-13.547 11.413-23.084 8.429-4.437 14.179-13.275 14.179-23.461 0-12.674-8.899-23.263-20.788-25.876l-4.806-35.679h-13.906z"/><path d="m190.649 245.048c1.585-.43 3.243-.68 4.963-.68h35.388c3.309 0 6-2.691 6-6v-9.913l-.619-.255c-19.367-7.988-31.881-26.681-31.881-47.622v-43.634h-13.699l-4.867 35.646c-11.963 2.558-20.934 13.184-20.934 25.91 0 10.205 5.772 19.058 14.227 23.485-.782 9.528 3.918 18.236 11.422 23.063z"/></g><g><path d="m202 248.822-1-5.454h-5.388c-11.046 0-20 8.954-20 20v22.632l5.408 1h20.98z" fill="#ffbd86"/><path d="m281 243.368c-2.761 0-5-2.239-5-5v-10.332c-6.152 2.603-12.911 4.043-20 4.043s-13.848-1.44-20-4.043v10.332c0 2.761-2.239 5-5 5h-10l-1 5.454v38.178h72v-38.178l-1-5.454z" fill="#f6a96c"/><path d="m398.142 318.279-66.309-67.601c-3.664-4.462-9.219-7.31-15.445-7.31h-5.388l-1 5.454v38.178h9.607l13.137 13.137 1.113-.301 32.585 32.585-39.493 39.493 22.921 22.921 48.271-48.271c7.812-7.811 7.812-20.474.001-28.285z" fill="#ffbd86"/></g><path d="m187.862 389.783 2.729-7.441c1.597-4.355 2-9.069 1.166-13.632l-4.673-25.546-1.496-1.496c-5.107 2.144-10.711 3.332-16.588 3.332-1.357 0-2.698-.071-4.023-.194l-11.046 11.046c11.684 11.683 24.383 24.383 33.931 33.931z" fill="#fed2a4"/><g><path d="m201 243.368h20v43.632h-20z" fill="#e30256"/><path d="m201 243.368h8v43.632h-8z" fill="#d2024e"/><path d="m291 243.368h20v43.632h-20z" fill="#e30256"/><path d="m291 243.368h8v43.632h-8z" fill="#d2024e"/></g><path d="m321.227 368.89 12.631-69.053-13.837-13.837h-144.41l15.162 82.89c.803 4.391.416 8.917-1.121 13.107l-38.975 106.261c31.907 15.216 67.618 23.742 105.323 23.742s73.416-8.526 105.323-23.742l-38.975-106.261c-1.537-4.191-1.924-8.716-1.121-13.107z" fill="#fe0364"/><path d="m150.677 488.258c7.812 3.726 15.856 7.044 24.098 9.94l40.2-116.201c1.537-4.191 1.924-8.716 1.121-13.107l-15.161-82.89h-25.323l15.162 82.89c.803 4.391.416 8.917-1.121 13.107z" fill="#e30256"/><g><g><path d="m204.5 180.579v-27.468h-10.821c-11.831 0-21.422 9.591-21.422 21.422v5.009c0 11.831 9.591 21.422 21.422 21.422h15.037c-2.708-6.255-4.216-13.146-4.216-20.385z" fill="#f6a96c"/><path d="m318.321 153.111h-10.821v27.468c0 7.239-1.508 14.13-4.216 20.385h15.037c11.831 0 21.422-9.591 21.422-21.422v-5.009c0-11.831-9.591-21.422-21.422-21.422z" fill="#ffbd86"/></g><g><path d="m203.5 136.945v43.634c0 28.995 23.505 52.5 52.5 52.5 28.995 0 52.5-23.505 52.5-52.5v-43.634z" fill="#fed2a4"/></g><path d="m225.25 180.579v-43.634h-21.75v43.634c0 28.995 23.505 52.5 52.5 52.5 3.709 0 7.317-.416 10.808-1.15-23.742-5.035-41.558-26.109-41.558-51.35z" fill="#ffbd86"/><path d="m191.911 104h128.179v17h-128.179z" fill="#fe0364"/><path d="m191.911 104h33.911v17h-33.911z" fill="#e30256"/><g><g><path d="m255.612 216.754c-7.161 0-14.32-2.416-20.162-7.249-3.191-2.64-3.638-7.368-.998-10.56 2.64-3.191 7.368-3.639 10.56-.998 6.142 5.082 15.059 5.082 21.201 0 3.193-2.641 7.92-2.193 10.56.998 2.64 3.192 2.193 7.919-.998 10.56-5.842 4.833-13.004 7.249-20.163 7.249z" fill="#d88a55"/></g></g><path d="m307.645 145.343h-103.29c-6.609 0-11.967 5.358-11.967 11.967v4.128c0 13.807 11.193 25 25 25h11.781c4.911 0 9.323-3 11.128-7.567l6.607-16.876c.3-.767 1.039-1.271 1.862-1.271h14.465c.823 0 1.562.504 1.862 1.271l6.607 16.876c1.805 4.567 6.218 7.567 11.128 7.567h11.781c13.807 0 25-11.193 25-25v-4.128c.002-6.61-5.355-11.967-11.964-11.967z" fill="#596c76"/><g><path d="m209 161.438v-4.128c0-6.609 5.358-11.967 11.967-11.967h-16.611c-6.609 0-11.967 5.358-11.967 11.967v4.128c0 13.807 11.193 25 25 25h11.781c.668 0 1.326-.06 1.97-.168-12.46-1.42-22.14-11.993-22.14-24.832z" fill="#465a61"/></g><g><path d="m378.416 137.945h-244.832c-4.955 0-8.972-4.017-8.972-8.973 0-4.955 4.017-8.973 8.972-8.973h244.832c4.955 0 8.973 4.017 8.973 8.973-.001 4.956-4.018 8.973-8.973 8.973z" fill="#fdb441"/></g><path d="m167 128.973c0-4.955 4.017-8.973 8.972-8.973h-42.388c-4.955 0-8.973 4.017-8.973 8.972 0 4.955 4.017 8.973 8.973 8.973h42.388c-4.955 0-8.972-4.017-8.972-8.972z" fill="#fea613"/></g><g><path d="m408 416.5h-18c-4.142 0-7.5-3.358-7.5-7.5s3.358-7.5 7.5-7.5h18c4.142 0 7.5 3.358 7.5 7.5s-3.358 7.5-7.5 7.5z" fill="#ffe5c2"/></g><g><path d="m124 440.5h-9c-4.142 0-7.5-3.358-7.5-7.5s3.358-7.5 7.5-7.5h9c4.142 0 7.5 3.358 7.5 7.5s-3.358 7.5-7.5 7.5z" fill="#ffe5c2"/></g><g><path d="m138 394.5h-13c-4.142 0-7.5-3.358-7.5-7.5s3.358-7.5 7.5-7.5h13c4.142 0 7.5 3.358 7.5 7.5s-3.358 7.5-7.5 7.5z" fill="#ffe5c2"/></g><g><path d="m452 367.5h-10c-4.142 0-7.5-3.358-7.5-7.5s3.358-7.5 7.5-7.5h10c4.142 0 7.5 3.358 7.5 7.5s-3.358 7.5-7.5 7.5z" fill="#ffe5c2"/></g><g><path d="m377 459.5h-7c-4.142 0-7.5-3.358-7.5-7.5s3.358-7.5 7.5-7.5h7c4.142 0 7.5 3.358 7.5 7.5s-3.358 7.5-7.5 7.5z" fill="#ffe5c2"/></g><g><path d="m84 363.5h-9c-4.142 0-7.5-3.358-7.5-7.5s3.358-7.5 7.5-7.5h9c4.142 0 7.5 3.358 7.5 7.5s-3.358 7.5-7.5 7.5z" fill="#ffe5c2"/></g><g><g><path d="m204 215h-29c-2.761 0-5 2.239-5 5v52h10v-47h24c1.657 0 3-1.343 3-3v-4c0-1.657-1.343-3-3-3z" fill="#fed402"/></g><g><path d="m171.696 272c-.891-5.48-3.438-10.742-7.664-14.968-6.332-6.332-14.988-8.917-23.222-7.766-1.315.184-2.36 1.229-2.544 2.544-.977 6.988.747 14.273 5.158 20.19z" fill="#8bc727"/></g><g><path d="m186.576 272c4.411-5.917 6.135-13.203 5.158-20.19-.184-1.315-1.229-2.36-2.544-2.544-8.234-1.151-16.89 1.434-23.222 7.766-4.226 4.226-6.773 9.488-7.664 14.968z" fill="#81b823"/></g><g><path d="m207.669 281-4.584-1h-67.67l-5.084 1c-3.398 6.241-5.331 13.394-5.331 21 0 24.301 19.699 44 44 44s44-19.699 44-44c0-7.606-1.934-14.759-5.331-21z" fill="#883f2e"/></g><path d="m149 302c0-7.606 1.933-14.759 5.331-21h-24c-3.398 6.241-5.331 13.394-5.331 21 0 24.301 19.699 44 44 44 4.162 0 8.184-.59 12-1.67-18.465-5.226-32-22.191-32-42.33z" fill="#6d3326"/><g><g><path d="m207.669 281c-1.799-3.305-4.008-6.355-6.56-9.079-.559-.597-1.351-.921-2.169-.921h-59.88c-.818 0-1.61.325-2.169.921-2.552 2.724-4.761 5.774-6.56 9.079z" fill="#fff"/></g></g><path d="m163.06 271h-24c-.818 0-1.61.325-2.169.921-2.552 2.724-4.761 5.774-6.56 9.079h24c1.799-3.305 4.008-6.355 6.56-9.079.559-.596 1.351-.921 2.169-.921z" fill="#fff3de"/></g><g><path d="m142.945 310.191c-.119-2.257-1.025-4.479-2.739-6.193-3.685-3.685-9.714-3.685-13.399 0l-12.654 12.654c-3.685 3.685-3.685 9.714 0 13.399l26.797 26.797c3.685 3.685 9.714 3.685 13.399 0l12.654-12.654c3.685-3.685 3.685-9.714 0-13.399-1.714-1.714-3.936-2.62-6.193-2.739-.119-2.257-1.025-4.479-2.739-6.193s-3.936-2.62-6.193-2.74c-.119-2.257-1.025-4.479-2.739-6.193-1.715-1.714-3.937-2.62-6.194-2.739z" fill="#ffbd86"/></g><path d="m165.271 345.925c-3.685 3.685-9.714 3.685-13.399 0l-26.797-26.797c-3.682-3.682-3.684-9.706-.007-13.391l-10.916 10.916c-3.685 3.685-3.685 9.714 0 13.399l26.797 26.797c3.685 3.685 9.714 3.685 13.399 0l12.654-12.654c.002-.002.004-.005.007-.008z" fill="#f6a96c"/><g><path d="m323.841 416.043c.119 2.257 1.025 4.479 2.739 6.193 3.685 3.685 9.714 3.685 13.399 0l12.654-12.654c3.685-3.685 3.685-9.714 0-13.399l-26.797-26.797c-3.685-3.685-9.714-3.685-13.399 0l-12.654 12.654c-3.685 3.685-3.685 9.714 0 13.399 1.714 1.714 3.936 2.62 6.193 2.739.119 2.257 1.025 4.479 2.739 6.193s3.936 2.62 6.193 2.739c.119 2.257 1.025 4.479 2.739 6.193 1.715 1.715 3.937 2.621 6.194 2.74z" fill="#fed2a4"/></g><path d="m335.202 414.957c-1.801-1.801-2.753-4.136-2.879-6.508-2.372-.125-4.707-1.078-6.508-2.879-1.801-1.802-2.753-4.136-2.879-6.508-2.372-.125-4.707-1.077-6.508-2.879-1.801-1.801-2.753-4.136-2.879-6.508-2.372-.125-4.707-1.077-6.508-2.879-2.54-2.54-3.402-6.138-2.61-9.407l-4.65 4.65c-3.685 3.685-3.685 9.714 0 13.399 1.714 1.714 3.936 2.62 6.193 2.739.119 2.257 1.025 4.479 2.739 6.193s3.936 2.62 6.193 2.74c.119 2.257 1.025 4.479 2.74 6.193 1.714 1.714 3.936 2.62 6.193 2.739.119 2.257 1.025 4.479 2.739 6.193 3.685 3.685 9.714 3.685 13.399 0l4.682-4.682c-3.281.816-6.904-.043-9.457-2.596z" fill="#ffbd86"/><path d="m258.825 176.281-4.565-2.366 8.073-13.191h-15.896c-1.043 0-2.011.541-2.556 1.43l-6.517 10.609c-.666 1.085-1.121 2.305-1.202 3.575-.197 3.079 1.447 5.841 4.035 7.182l11.964 6.201c1.103.572 2.282.843 3.445.843 2.908 0 5.708-1.696 6.933-4.623 1.523-3.64-.211-7.844-3.714-9.66z" fill="#d88a55"/></g></g></svg>